<?xml version="1.0" encoding="utf-8"?>
<!-- Generator: Adobe Illustrator 19.0.1, SVG Export Plug-In . SVG Version: 6.00 Build 0)  -->
<!DOCTYPE svg PUBLIC "-//W3C//DTD SVG 1.1//EN" "http://www.w3.org/Graphics/SVG/1.1/DTD/svg11.dtd">
<svg version="1.1" id="Layer_1" xmlns="http://www.w3.org/2000/svg" xmlns:xlink="http://www.w3.org/1999/xlink" x="0px" y="0px"
   viewBox="0 0 294 248" style="enable-background:new 0 0 294 248;" xml:space="preserve">
<style type="text/css">
  .st0{fill:#FAF7F3;}
  .st1{fill:#F6F0E6;}
  .st2{fill:#FFFFFF;stroke:#FFFFFF;stroke-miterlimit:10;}
  .st3{fill:#D3B489;}
  .st4{opacity:0.6;fill:#348F38;}
  .st5{opacity:0.7;}
  .st6{fill:#348F38;}
  .st7{fill:#FFFFFF;}
  .st8{opacity:0.6;fill:#9E9E9E;}
  .st9{opacity:0.8;fill:#9E9E9E;}
  .st10{opacity:0.6;fill:#9FD3DD;}
  .st11{fill:#F54234;}
</style>
<g>
  <path class="st0" d="M99.5,196.2l96.2,50c0.3,0.2,0.6,0.2,0.9,0l94.9-50.2c0.3-0.2,0.5-0.5,0.5-0.9L291.8,3c0-0.8-0.8-1.2-1.5-0.9
    l-93.9,49.7c-0.3,0.2-0.6,0.2-0.9,0l-96.1-50c-0.3-0.2-0.6-0.2-0.9,0L2.4,52.2c-0.3,0.2-0.5,0.5-0.5,0.9l0.2,192.2
    c0,0.8,0.8,1.2,1.5,0.9l94.9-50C98.8,196,99.2,196,99.5,196.2z"/>
  <polygon class="st1" points="98.4,1.8 98.5,196.2 196.6,246.2 196.4,51.8   "/>
  <path class="st2" d="M1.9,176.1l47.5-4.2c0.2,0,0.3-0.1,0.4-0.1l48.2-29.8c0.2-0.1,0.4-0.2,0.6-0.1l97.4,3.2c0.3,0,0.5-0.1,0.7-0.3
    l95-93.1l-0.3,0v11l0.3,0.3l-51.2,50.3c-0.2,0.2-0.3,0.5-0.3,0.8c0,0,7.6,105,7.3,105.2l-6,3.2c-0.6,0.3-9.2-100.7-9.2-100.7
    c-0.1-0.8-1.1-1.2-1.7-0.6l-34,33.5c-0.2,0.2-0.5,0.3-0.7,0.3l-97.6-2.7l-39.6,28.3c-0.3,0.2-0.5,0.6-0.4,1c0,0,4.8,33.3,4.4,33.5
    l-6.2,3.3c-0.6,0.3-6.2-36.4-6.2-36.4c-0.1-0.5-0.5-0.9-1.1-0.9l-47.5,3.3"/>
  <path class="st3" d="M152.4,240.9"/>
  <path class="st4" d="M246.5,66.5l17.9-11.9c2-1.3,4.7,0.1,4.7,2.5v1.3c0,0.7-0.3,1.4-0.8,2l-8.4,9.4c-1.5,1.7-3.7,2.7-6,2.7H247
    c-0.6,0-1-0.4-1-1v-4.2C246,67,246.2,66.7,246.5,66.5z"/>
  <g class="st5">
    <path class="st6" d="M112,167.6v21.9c0,1.9,1.1,3.6,2.7,4.5l68.4,34.8c1.3,0.7,2.9-0.3,2.9-1.8v-39.4c0-4.4-3.6-8-8-8h-15.6
      c-0.3,0-0.5-0.1-0.7-0.3L147.5,165c-0.7-0.7-1.7-1.2-2.8-1.2l-28.7-0.3C113.8,163.6,112,165.4,112,167.6z"/>
    <path class="st3" d="M122,163.6v13l3.3,5.7l6.5,4.7l12.7-5l13.2-6.7l-2-2l-12,6.2l-10.8,4.4c-0.4,0.2-0.9,0-1.1-0.3l-4.1-3.5
      c-0.1-0.1-0.2-0.2-0.2-0.3l-2.2-3.9c-0.1-0.2-0.2-0.4-0.2-0.6l-0.5-11.5L122,163.6z"/>
    <path class="st3" d="M142.5,182.7l5.3,13.8c0.1,0.2,0.3,0.4,0.5,0.6l8.5,3.8c0.2,0.1,0.4,0.3,0.5,0.6l4.6,12.3
      c0,0.1,0.1,0.2,0.1,0.4l-0.4,3.7l2.4,1.4v-4.4c0-0.1,0-0.2-0.1-0.3l-4.7-13.1c-0.1-0.3-0.1-0.6,0.1-0.8l4-7.3
      c0.2-0.3,0.4-0.5,0.8-0.5l8.4-0.9c0.4,0,0.8-0.3,0.9-0.7l2.9-11.5H173l-1.5,8.9c-0.1,0.4-0.4,0.7-0.8,0.8l-6.9,1.2
      c-0.3,0-0.5,0.2-0.7,0.4l-4.2,6c-0.2,0.3-0.7,0.5-1.1,0.4l-7.3-1.9c-0.3-0.1-0.6-0.3-0.7-0.6l-4.7-13.2L142.5,182.7z"/>
  </g>
  <path class="st7" d="M2,116.9l44.5-37.5c0.3-0.3,0.8-0.3,1.2-0.1l26.5,15.5c0.2,0.1,0.4,0.1,0.6,0.1L99,89.6c0.1,0-0.1,0,0,0
    l33.6-6.5c0.3-0.1,0.5-0.3,0.6-0.5L149,52.5c0,0,0,0,0-0.1l8.7-20.3l-8.7-4.4l-9.2,21.3l-10,23.2c-0.1,0.3-0.3,0.5-0.6,0.6
    l-30.8,9.5c-0.1,0-0.1,0-0.2,0L74,84.9c-0.2,0-0.4,0-0.6-0.1L49.8,72.6c0,0-0.1,0-0.1-0.1L12.4,47l-10,5.2l32,20
    c0.3,0.2,0.5,0.6,0.5,1l-0.5,4.7c0,0.2-0.1,0.5-0.3,0.6L2,108.2V116.9z"/>
  <path class="st4" d="M44.5,52.4l6.4,8.8c0.1,0.1,0.1,0.2,0.2,0.2l11.4,8.5c2,1.5,4.9,1.3,6.6-0.6l9.5-9.9c0.9-0.9,1.4-2.2,1.4-3.5
    V40.6c0-2.2-1.8-4-4-4H60.3c-0.9,0-1.7,0.1-2.5,0.4l-9.3,3.1C43.3,41.8,41.3,48,44.5,52.4z"/>
  <polyline class="st7" points="105,141.7 122,104.5 152.4,98 176,98 186,109.8 192,120 196.6,127 209,127 215,127 205,136.9 
    196.5,137.1 186,126.6 176.2,112.8 172,107 158,107 127,112.8 116,142.4   "/>
  <polygon class="st2" points="242.6,145.9 263.3,133.7 291.5,145.6 291.5,153.6 263.5,142.3 243.4,153.6  "/>
  <path class="st8" d="M59,108.4l-26.2,26.2c-0.4,0.4-0.4,1,0,1.4l4.5,4.5c0.4,0.4,0.8,0.2,1.2-0.2l6.4-6.4l2.9,2.9
    c0.4,0.4,0.8,0.5,1.2,0.1l12.4-12.4c0.4-0.4,0.3-0.8-0.1-1.2l-2.9-2.9l6.4-6.4c0.4-0.4,0.6-0.8,0.2-1.2l-4.5-4.5
    C60,108,59.4,108,59,108.4z"/>
  <path class="st7" d="M29.6,93.7l6.1,7.9c0.9,1.2,2.4,1.7,3.9,1.5l3.4-0.6c2-0.3,3.9,0.8,4.5,2.7l0.7,2.4c0.4,1.2,0.2,2.6-0.6,3.6
    l-3.5,4.7c-0.5,0.7-1.2,1.2-2,1.4l-3.8,1.1c-2.6,0.8-5.1-1.2-5.1-3.8v-3.6c0-0.2,0-0.5,0.1-0.7l0.3-1.7c0.2-1.1-0.1-2.2-0.7-3.1
    L26,96.6L29.6,93.7z"/>
  <path class="st9" d="M184.2,67.6l-19.4-8c-0.5-0.2-0.8-0.8-0.5-1.3l2.5-6.1c0.2-0.5,0.8-0.8,1.3-0.5l19.4,8
    c0.5,0.2,0.8,0.8,0.5,1.3l-2.5,6.1C185.3,67.6,184.7,67.8,184.2,67.6z"/>
  <path class="st7" d="M145.3,59.6l6.1,3.4c0.6,0.4,1.4,0.6,2.1,0.6h4.5h1.7c2.4,0,4.3,1.9,4.3,4.3v1c0,1.1-0.4,2.1-1.1,2.9l-3.2,3.5
    c-0.2,0.2-0.5,0.4-0.7,0.6l-5.2,3.6c-2.4,1.6-5.6,0.5-6.5-2.2v0c-0.4-1.1-0.3-2.2,0.2-3.2l1.6-3.2v-3.4l-5.7-4.2L145.3,59.6z"/>
  <path class="st4" d="M37.6,202l2.4,7c0.3,0.8-0.1,1.6-0.9,1.9l-6.5,8.3c-0.3,0.1-6.2,0-6.5,0l-5.4,3.3c-1.8,0.3-8-1.8-8.6-3.3
    l1.8-11.8c-0.1-0.2-0.1-0.3-0.1-0.5l-1.6-8.7c-0.3-1.8,1.1-3.5,3.1-3.6l4.1-0.2c0.8,0,1.7,0.2,2.4,0.7l3.9,2.6
    c0.8,0.6,1.8,0.8,2.8,0.6l3-0.5c1.2-0.2,2.4,0.2,3.3,1l1.7,1.6C37,200.8,37.3,201.4,37.6,202z"/>
  <path class="st10" d="M275.2,20.5l-19.9,10.4c-0.3,0.2-0.6,0.3-0.8,0.6L239,45.6c-0.7,0.6-1.6,1-2.5,1h-13c-0.9,0-1.8,0.3-2.5,0.9
    l-13.4,10.9c-0.9,0.8-1.5,1.9-1.5,3.1v16.1v17.6c0,1.5,0.8,2.9,2.2,3.6l5,2.6c1.1,0.6,2.5,0.6,3.6,0l14.2-7.1
    c0.7-0.3,1.2-0.9,1.6-1.5l7.8-12.9c1.2-1.9,0.5-4.4-1.4-5.6l-7.6-4.3l-0.8-4c-0.3-1.5,0.4-3.1,1.7-3.9l0.9-0.5
    c1.6-1,3.7-0.7,4.9,0.8l0,0c0.7,0.9,1.8,1.3,2.9,1.3h1.3c2.1,0,3.8-1.7,3.8-3.8v-2.7c0-1.5,0.9-2.9,2.4-3.5l4.8-1.9
    c0.2-0.1,0.4-0.2,0.6-0.3l13-8c0.2-0.1,0.4-0.3,0.6-0.5l10.9-10.1l3.3-3.1c1.4-1.3,1.6-3.3,0.6-4.8l-2.1-3.2
    C279,20.2,276.9,19.6,275.2,20.5z"/>
  <path class="st10" d="M215.6,174.2l-7.1,9.3c-0.6,0.7-0.9,1.7-0.9,2.6v10.8c0,1.4,0.7,2.8,1.9,3.6l5.9,3.9c1.6,1.1,3.7,0.9,5.2-0.3
    l4.4-3.8c0.9-0.8,1.5-2,1.5-3.2v-11.1c0-0.3,0-0.5-0.1-0.8l-1.6-8.7C223.9,172,218.3,170.6,215.6,174.2z"/>
  <path class="st4" d="M201.2,161.5l-1.5,6.9c-0.4,1.6,0.9,3.2,2.6,3.2h4.8c1.1,0,2-0.9,2-2v-4l5.9-2.3l3.6,1.3
    c1.7,0.6,3.5-0.6,3.5-2.5l0,0c0-1,0.6-1.9,1.4-2.3l3.1-1.6c0.9-0.4,1.4-1.3,1.4-2.3v-8.4v-4.2c0-1.5-1.3-2.7-2.8-2.6l-1.8,0.1
    c-1.4,0.1-2.4,1.2-2.4,2.6v2.4c0,1-0.6,2-1.6,2.4l-6.1,2.7l-2.8,1.3c-0.9,0.4-1.5,1.4-1.5,2.4v0.1c0,1.1-0.7,2.1-1.8,2.5l-0.9,0.3
    c-0.2,0.1-0.4,0.1-0.5,0.3l-3.4,2.1C201.8,160.2,201.3,160.8,201.2,161.5z"/>
  <path class="st4" d="M204.8,212.6l-4.7,3.7v3.2c0,1.7,1.3,3,3,3h6l2.8-3.3c1.1-1.3,0.9-3.2-0.4-4.3l-2.9-2.3
    C207.4,211.8,205.8,211.8,204.8,212.6z"/>
  <path class="st4" d="M219.4,210.3l-2.3,11.9c0,0.2-0.1,0.4-0.2,0.6l0,0c-0.9,1.9,1.1,3.9,3,2.9l5.7-3.1l9.3-5.1
    c0.7-0.4,1.1-1.1,1.1-1.9v-2.5c0-0.9-0.6-1.7-1.4-2l-6.2-2.3c-0.2-0.1-0.5-0.1-0.8-0.1h-6.1C220.5,208.6,219.6,209.3,219.4,210.3z"
    />
  <path class="st8" d="M284,99.2l-6.6-0.1c-0.5,0-1,0.4-1,1l-0.1,3.4l-0.6,0c-0.5,0-1,0.4-1,1l-0.2,12.2c0,0.5,0.4,1,1,1l0.6,0
    L276,121c0,0.5,0.4,1,1,1l6.6,0.1c0.5,0,1-0.4,1-1l0.4-21C285,99.6,284.5,99.2,284,99.2z"/>
  <g>
    <g>
      <path class="st11" d="M45.1,100.8c0.5-2.6-2.1-4.9-4.8-4.9s-5.3,2.4-4.8,5c0.6,2.9,4.8,10.8,4.8,10.8S44.5,103.7,45.1,100.8z
         M40.3,98.2c1.2,0,2.2,1,2.2,2.2c0,0.8-0.4,1.5-1.1,1.9c-0.3,0.2-0.7,0.3-1.1,0.3c-0.4,0-0.8-0.1-1.1-0.3
        c-0.6-0.4-1.1-1.1-1.1-1.9C38.1,99.2,39,98.2,40.3,98.2z"/>
      <g>
        <path class="st11" d="M171.8,108.3c0.5-2.6-2.1-4.9-4.8-4.9c-2.6,0-5.3,2.4-4.8,5c0.6,2.9,4.8,10.8,4.8,10.8
          S171.2,111.2,171.8,108.3z M166.9,105.8c1.2,0,2.2,1,2.2,2.2c0,0.8-0.4,1.5-1.1,1.9c-0.3,0.2-0.7,0.3-1.1,0.3
          c-0.4,0-0.8-0.1-1.1-0.3c-0.6-0.4-1.1-1.1-1.1-1.9C164.8,106.7,165.7,105.8,166.9,105.8z"/>
      </g>
      <g>
        <path class="st11" d="M169.6,169.8c0.5-2.6-2.1-4.9-4.8-4.9c-2.6,0-5.3,2.4-4.8,5c0.6,2.9,4.8,10.8,4.8,10.8
          S169,172.7,169.6,169.8z M164.8,167.2c1.2,0,2.2,1,2.2,2.2c0,0.8-0.4,1.5-1.1,1.9c-0.3,0.2-0.7,0.3-1.1,0.3
          c-0.4,0-0.8-0.1-1.1-0.3c-0.6-0.4-1.1-1.1-1.1-1.9C162.6,168.2,163.6,167.2,164.8,167.2z"/>
      </g>
      <g>
        <path class="st11" d="M248.2,69.3c0.5-2.6-2.1-4.9-4.8-4.9c-2.6,0-5.3,2.4-4.8,5c0.6,2.9,4.8,10.8,4.8,10.8
          S247.6,72.2,248.2,69.3z M243.4,66.7c1.2,0,2.2,1,2.2,2.2c0,0.8-0.4,1.5-1.1,1.9c-0.3,0.2-0.7,0.3-1.1,0.3
          c-0.4,0-0.8-0.1-1.1-0.3c-0.6-0.4-1.1-1.1-1.1-1.9C241.2,67.7,242.1,66.7,243.4,66.7z"/>
      </g>
      <polygon class="st7" points="114.7,86.5 122,104.3 129.5,102.6 122.1,85.1      "/>
    </g>
  </g>
  <path class="st9" d="M175.2,135.6l-39.8,0c-0.5,0-1-0.4-1-1l0-9.8c0-0.6,0.4-1,1-1h39.8c0.6,0,1,0.4,1,1v9.8
    C176.2,135.1,175.7,135.6,175.2,135.6z"/>
  <path class="st7" d="M146.2,117.1L146.2,117.1c-1,0.9-0.4,2.5,0.9,2.5h1.7c0.1,0,0.2,0,0.3,0l6.1-1.5c0,0,0.1,0,0.1,0l3.1-1
    c0.8-0.3,1.2-1.2,0.8-1.9l-1.3-2.7c-0.2-0.5-0.7-0.8-1.3-0.8H155c-0.6,0-1.1-0.3-1.3-0.9l-1.2-3l-5.4,0.9l0.4,2.9
    c0,0.2,0,0.3,0,0.5C147.5,111.9,146.5,116.9,146.2,117.1z"/>
  <path class="st7" d="M146.5,116.9"/>
</g>
</svg>
