<?xml version="1.0" encoding="utf-8"?>
<!-- Generator: Adobe Illustrator 19.0.1, SVG Export Plug-In . SVG Version: 6.00 Build 0)  -->
<!DOCTYPE svg PUBLIC "-//W3C//DTD SVG 1.1//EN" "http://www.w3.org/Graphics/SVG/1.1/DTD/svg11.dtd">
<svg version="1.1" id="Layer_1" xmlns="http://www.w3.org/2000/svg" xmlns:xlink="http://www.w3.org/1999/xlink" x="0px" y="0px"
	 viewBox="0 0 280 447.7" style="enable-background:new 0 0 280 447.7;" xml:space="preserve">
<style type="text/css">
	.st0{opacity:0.5;fill:#9E9E9E;}
	.st1{fill:#F54234;}
</style>
<g>
	<ellipse class="st0" cx="138" cy="419.8" rx="114.1" ry="23.1"/>
	<path class="st1" d="M266.1,136C280.5,67.9,209.7,5.5,140,5.5S-0.5,70.1,13.9,138.2C30,214.4,140,422.9,140,422.9
		S250,212.7,266.1,136z M138.8,67.8c32.1,0,58.2,26.1,58.2,58.2c0,21.1-11.3,39.5-28.1,49.7c-8.8,5.4-19.1,8.5-30.2,8.5
		s-21.4-3.1-30.2-8.5c-16.8-10.2-28.1-28.6-28.1-49.7C80.6,93.9,106.6,67.8,138.8,67.8z"/>
</g>
</svg>
